<svg width="70" height="70" viewBox="0 0 70 70" fill="none" xmlns="http://www.w3.org/2000/svg">
<circle cx="35" cy="35" r="33.75" stroke="black" stroke-width="2.5"/>
<path d="M22.3135 53.4169L23.0955 53.7455L34.0383 53.7192C44.2854 53.6946 45.0078 53.6824 45.3989 53.5283C46.3299 53.1614 46.7278 52.5221 46.8033 51.2716L46.855 50.4153L46.3655 50.0172L45.876 49.619L46.4992 49.4154C46.8421 49.3034 47.2164 49.1222 47.3311 49.0128C48.0149 48.3602 48.5555 46.4738 48.3015 45.627C48.208 45.3155 48.011 45.0799 47.4395 44.5959C47.032 44.2509 46.7154 43.9549 46.7358 43.9381C46.7563 43.9214 47.0767 43.7965 47.4479 43.6608C48.3379 43.3351 48.5422 43.2107 48.8752 42.791C49.3398 42.2054 49.5834 41.5218 49.5872 40.793C49.5925 39.7981 49.3482 39.2667 48.6031 38.6526C48.2633 38.3725 47.9852 38.1152 47.9852 38.081C47.9852 38.0468 48.2441 37.863 48.5606 37.6726C49.526 37.0919 49.9983 36.2985 50 35.2549C50.0022 33.9103 49.2816 32.9426 47.8215 32.3292C46.5184 31.7818 46.0799 31.7396 41.6841 31.7377C38.6255 31.7365 37.679 31.7087 37.4137 31.6118C36.6701 31.3404 36.0749 30.393 36.0749 29.4807C36.0749 28.8538 36.3659 28.1877 36.9695 27.4324C38.3103 25.755 39.3428 24.0533 40.112 22.2531C40.9341 20.3293 40.7651 18.9441 39.5068 17.2909C39.2426 16.9438 38.8365 16.5098 38.6044 16.3267C38.1262 15.9493 37.7992 15.9084 37.2343 16.1549C36.7421 16.3697 36.4182 16.9579 36.2285 17.9819C35.7929 20.3316 34.935 22.0467 33.1786 24.0785C32.2556 25.1462 30.9724 26.3133 29.7509 27.1962C28.7132 27.9461 28.3213 28.4661 27.0382 30.7955C25.8996 32.8625 25.0509 33.9056 23.0709 35.6718L22.2194 36.4313H21.0987C20.4824 36.4313 19.7579 36.4577 19.4891 36.4899L19 36.5484" stroke="black" stroke-width="2.5" stroke-linecap="round"/>
</svg>
