<svg width="11" height="9" viewBox="0 0 11 9" fill="none" xmlns="http://www.w3.org/2000/svg">
<path d="M10.9957 3.56866V7.69418C10.9957 7.89312 10.9066 8.08391 10.748 8.22458C10.5894 8.36525 10.3742 8.44428 10.1499 8.44428H0.845827C0.6215 8.44428 0.40636 8.36525 0.247737 8.22458C0.0891136 8.08391 0 7.89312 0 7.69418V3.56866C0 3.46919 0.0445568 3.3738 0.123868 3.30346C0.20318 3.23313 0.31075 3.19361 0.422913 3.19361C0.481425 3.18223 0.542025 3.18223 0.600537 3.19361L5.49787 6.19399L10.4037 3.19361C10.4595 3.18326 10.517 3.18326 10.5728 3.19361C10.685 3.19361 10.7926 3.23313 10.8719 3.30346C10.9512 3.3738 10.9957 3.46919 10.9957 3.56866ZM0.211457 1.63342L0.279123 1.69342L5.49787 4.6938L10.7335 1.69342H10.7843C10.8585 1.65748 10.9184 1.6023 10.9562 1.53527C10.994 1.46823 11.0078 1.39255 10.9957 1.31838C10.9957 1.21891 10.9512 1.12351 10.8719 1.05318C10.7926 0.982843 10.685 0.943329 10.5728 0.943329H0.422913C0.31075 0.943329 0.20318 0.982843 0.123868 1.05318C0.0445568 1.12351 0 1.21891 0 1.31838C0.00107049 1.38271 0.021164 1.44566 0.0582717 1.50095C0.0953794 1.55623 0.148201 1.60191 0.211457 1.63342Z" fill="#812229"/>
</svg>
