<svg width="11" height="13" viewBox="0 0 11 13" fill="none" xmlns="http://www.w3.org/2000/svg">
<path d="M10.4872 2.53021L9.06552 1.07736C8.96523 0.974328 8.84603 0.892578 8.71476 0.836808C8.58349 0.781037 8.44275 0.752346 8.3006 0.75238C8.01092 0.75238 7.7386 0.868445 7.53435 1.07736L6.00452 2.64218C5.90379 2.74477 5.82387 2.86669 5.76935 3.00096C5.71482 3.13524 5.68677 3.2792 5.68681 3.42459C5.68681 3.7209 5.80028 3.99945 6.00452 4.20837L7.12319 5.35263C6.86134 5.943 6.49728 6.48008 6.04857 6.93793C5.601 7.39801 5.07598 7.77176 4.49872 8.04123L3.38005 6.89697C3.27976 6.79394 3.16056 6.71219 3.02929 6.65642C2.89802 6.60065 2.75727 6.57195 2.61513 6.57199C2.32545 6.57199 2.05313 6.68805 1.84888 6.89697L0.317714 8.46043C0.216862 8.5632 0.136871 8.68535 0.0823452 8.81986C0.0278194 8.95438 -0.000165423 9.09859 7.35596e-07 9.2442C7.35596e-07 9.54051 0.11347 9.81906 0.317714 10.028L1.73675 11.4795C2.06247 11.814 2.51234 12.0038 2.97423 12.0038C3.07168 12.0038 3.16512 11.9956 3.25723 11.9792C5.05672 11.6761 6.84152 10.6971 8.28192 9.22509C9.72097 7.75448 10.6768 5.93022 10.9771 4.08411C11.0679 3.52018 10.885 2.93985 10.4872 2.53021Z" fill="#812229"/>
</svg>
